<svg width="766.001" height="102.501" viewBox="0 0 766.001 102.501"><g id="svgGroup" stroke-linecap="round" fill-rule="evenodd" font-size="9pt" stroke="#000" stroke-width="0.25mm" fill="none" style="stroke:#000;stroke-width:0.25mm;fill:none"><path d="M 39.4 82.1 L 0 82.1 L 0 12.1 L 37.4 12.1 Q 51.358 12.1 58.507 17.07 A 19.105 19.105 0 0 1 58.55 17.1 A 17.8 17.8 0 0 1 63.011 21.461 A 15.216 15.216 0 0 1 65.7 30.4 A 16.767 16.767 0 0 1 64.607 36.5 A 15.735 15.735 0 0 1 63.25 39.2 A 16.302 16.302 0 0 1 58.772 43.853 A 21.379 21.379 0 0 1 56 45.5 A 24.928 24.928 0 0 1 60.889 47.915 A 18.776 18.776 0 0 1 65.6 52.2 A 16.239 16.239 0 0 1 68.89 60.63 A 20.979 20.979 0 0 1 69 62.8 A 17.709 17.709 0 0 1 67.746 69.591 Q 66.084 73.634 62.223 76.475 A 20.96 20.96 0 0 1 61.4 77.05 A 25.929 25.929 0 0 1 54.585 80.177 Q 51.239 81.199 47.163 81.678 A 66.687 66.687 0 0 1 39.4 82.1 Z M 37.4 54.6 L 23.2 54.6 L 23.2 65.6 L 37.4 65.6 A 16.383 16.383 0 0 0 40.149 65.391 Q 45.057 64.551 45.196 60.348 A 7.498 7.498 0 0 0 45.2 60.1 Q 45.2 55.464 39.656 54.736 A 17.397 17.397 0 0 0 37.4 54.6 Z M 34.2 28.6 L 23.2 28.6 L 23.2 39 L 34.2 39 A 16.872 16.872 0 0 0 36.914 38.802 Q 41.701 38.018 41.892 34.129 A 6.697 6.697 0 0 0 41.9 33.8 Q 41.9 29.476 36.574 28.748 A 17.605 17.605 0 0 0 34.2 28.6 Z" id="0" vector-effect="non-scaling-stroke"/><path d="M 76.6 82.1 L 76.6 27.4 L 99.2 27.4 L 99.2 82.1 L 76.6 82.1 Z M 83.655 22.543 A 18.646 18.646 0 0 0 87.9 23 A 23.239 23.239 0 0 0 87.918 23 Q 90.184 22.999 92.116 22.549 A 12.537 12.537 0 0 0 97.8 19.65 A 10.97 10.97 0 0 0 100.687 15.569 A 11.92 11.92 0 0 0 101.5 11.1 A 12.397 12.397 0 0 0 101.473 10.272 A 9.873 9.873 0 0 0 97.8 3.1 Q 94.1 0 87.9 0 A 18.796 18.796 0 0 0 83.819 0.42 A 12.924 12.924 0 0 0 78.05 3.25 A 10.8 10.8 0 0 0 75.297 6.81 A 10.855 10.855 0 0 0 74.3 11.5 A 12.813 12.813 0 0 0 74.323 12.271 A 10.371 10.371 0 0 0 78.05 19.75 A 12.876 12.876 0 0 0 83.655 22.543 Z" id="1" vector-effect="non-scaling-stroke"/><path d="M 148.4 26.4 L 148.4 46.4 A 38.505 38.505 0 0 0 145.567 46.083 A 29.764 29.764 0 0 0 143.4 46 Q 134.189 46 132.292 53.44 A 17.683 17.683 0 0 0 131.8 57.8 L 131.8 82.1 L 109.2 82.1 L 109.2 27.4 L 130.7 27.4 L 130.7 33.3 A 19.174 19.174 0 0 1 140.427 27.371 Q 143.564 26.522 147.316 26.416 A 38.346 38.346 0 0 1 148.4 26.4 Z" id="2" vector-effect="non-scaling-stroke"/><path d="M 189.7 64.5 L 195.1 80.2 A 19.483 19.483 0 0 1 190.449 82.051 Q 186.494 83.1 181.2 83.1 A 38.288 38.288 0 0 1 174.377 82.531 Q 170.551 81.837 167.532 80.298 A 18.852 18.852 0 0 1 163.5 77.55 Q 157.957 72.589 157.37 63.19 A 36.723 36.723 0 0 1 157.3 60.9 L 157.3 46.9 L 149.8 46.9 L 149.8 30.4 L 157.3 30.4 L 157.3 15.1 L 179.9 15.1 L 179.9 30.4 L 191.1 30.4 L 191.1 46.9 L 179.9 46.9 L 179.9 60.7 A 7.731 7.731 0 0 0 180.05 62.273 Q 180.25 63.232 180.714 63.968 A 4.301 4.301 0 0 0 181.2 64.6 A 4.319 4.319 0 0 0 184.134 65.983 A 5.916 5.916 0 0 0 184.6 66 A 9.49 9.49 0 0 0 187.602 65.539 A 8.392 8.392 0 0 0 189.7 64.5 Z" id="3" vector-effect="non-scaling-stroke"/><path d="M 261.2 50.9 L 261.2 82.1 L 238.6 82.1 L 238.6 54.8 A 19.537 19.537 0 0 0 238.344 51.487 Q 237.321 45.572 232.201 45.405 A 9.233 9.233 0 0 0 231.9 45.4 A 8.855 8.855 0 0 0 228.952 45.872 A 7.586 7.586 0 0 0 225.75 48.05 A 8.009 8.009 0 0 0 224.25 50.646 Q 223.413 52.936 223.4 56.297 A 27.456 27.456 0 0 0 223.4 56.4 L 223.4 82.1 L 200.8 82.1 L 200.8 7.9 L 223.4 7.9 L 223.4 31.8 Q 229.7 26.4 238.8 26.4 A 27.147 27.147 0 0 1 246.021 27.313 A 20.204 20.204 0 0 1 255.05 32.5 A 19.088 19.088 0 0 1 259.656 40.133 Q 260.669 43.155 261.018 46.848 A 43.202 43.202 0 0 1 261.2 50.9 Z" id="4" vector-effect="non-scaling-stroke"/><path d="M 308.9 7.9 L 331.5 7.9 L 331.5 82.1 L 310 82.1 L 310 77.6 A 15.329 15.329 0 0 1 303.085 81.971 Q 299.577 83.1 295 83.1 Q 287.8 83.1 281.75 79.65 A 24.736 24.736 0 0 1 272.488 70.303 A 29.594 29.594 0 0 1 272.15 69.7 Q 268.6 63.2 268.6 54.7 Q 268.6 46.2 272.15 39.75 A 25.583 25.583 0 0 1 278.545 32.028 A 24.463 24.463 0 0 1 281.75 29.85 Q 287.8 26.4 295 26.4 A 28.19 28.19 0 0 1 300.389 26.883 Q 303.505 27.49 305.921 28.863 A 14.413 14.413 0 0 1 308.9 31.1 L 308.9 7.9 Z M 300.4 65.5 A 8.691 8.691 0 0 0 303.799 64.853 A 8.193 8.193 0 0 0 306.8 62.65 Q 309.3 59.8 309.3 54.7 A 16.725 16.725 0 0 0 309.031 51.601 Q 308.697 49.834 307.95 48.447 A 8.55 8.55 0 0 0 306.8 46.8 A 8.124 8.124 0 0 0 300.882 44.011 A 10.512 10.512 0 0 0 300.4 44 A 8.848 8.848 0 0 0 297.051 44.616 A 8.177 8.177 0 0 0 294 46.8 A 9.175 9.175 0 0 0 292.087 50.299 Q 291.665 51.687 291.546 53.354 A 18.984 18.984 0 0 0 291.5 54.7 Q 291.5 59.8 294 62.65 A 8.061 8.061 0 0 0 299.858 65.486 A 10.286 10.286 0 0 0 300.4 65.5 Z" id="5" vector-effect="non-scaling-stroke"/><path d="M 395.6 52.7 L 395.6 82.1 L 374.6 82.1 L 374.6 74.9 A 13.569 13.569 0 0 1 365.053 82.443 Q 362.385 83.1 359.1 83.1 A 31.384 31.384 0 0 1 354.141 82.729 Q 351.387 82.288 349.087 81.324 A 18.361 18.361 0 0 1 348.05 80.85 A 18.065 18.065 0 0 1 343.956 78.117 A 15.038 15.038 0 0 1 341.15 74.75 A 16.143 16.143 0 0 1 338.809 66.697 A 19.255 19.255 0 0 1 338.8 66.1 A 16.772 16.772 0 0 1 339.601 60.782 A 13.389 13.389 0 0 1 345 53.8 A 20.28 20.28 0 0 1 350.283 51.324 Q 355.377 49.712 362.77 49.608 A 73.252 73.252 0 0 1 363.8 49.6 L 372.9 49.6 A 6.789 6.789 0 0 0 368.504 44.158 Q 367.074 43.574 365.195 43.347 A 21.613 21.613 0 0 0 362.6 43.2 A 25.437 25.437 0 0 0 356.048 44.081 A 28.837 28.837 0 0 0 355.1 44.35 A 23.934 23.934 0 0 0 351.474 45.762 A 18.571 18.571 0 0 0 348.6 47.5 L 341.4 32.6 Q 346.1 29.7 352.75 28.05 Q 359.4 26.4 366 26.4 A 51.543 51.543 0 0 1 374.336 27.03 Q 378.786 27.761 382.343 29.34 A 23.265 23.265 0 0 1 388 32.85 Q 394.795 38.617 395.515 49.939 A 43.529 43.529 0 0 1 395.6 52.7 Z M 373 64.3 L 373 60.5 L 367.4 60.5 A 15.312 15.312 0 0 0 364.968 60.676 Q 360.705 61.366 360.509 64.767 A 5.807 5.807 0 0 0 360.5 65.1 A 3.956 3.956 0 0 0 361.732 68.051 A 4.893 4.893 0 0 0 361.95 68.25 A 4.895 4.895 0 0 0 363.898 69.257 Q 364.628 69.455 365.493 69.492 A 9.494 9.494 0 0 0 365.9 69.5 Q 368.3 69.5 370.2 68.2 A 6.849 6.849 0 0 0 372.282 65.901 A 9.448 9.448 0 0 0 373 64.3 Z" id="6" vector-effect="non-scaling-stroke"/><path d="M 444.9 27.4 L 466.3 27.4 L 443.8 83.2 Q 440.978 90.222 437.252 94.488 A 21.346 21.346 0 0 1 433.1 98.2 A 24.769 24.769 0 0 1 423.839 101.921 A 34.171 34.171 0 0 1 417.4 102.5 Q 412.8 102.5 408.15 101.15 A 28.464 28.464 0 0 1 404.937 100.018 Q 402.488 98.975 400.8 97.6 L 408.3 82.1 A 14.591 14.591 0 0 0 411.685 84.019 A 16.536 16.536 0 0 0 412.15 84.2 Q 414.3 85 416.3 85 Q 419.296 85 421.111 83.558 A 5.838 5.838 0 0 0 421.9 82.8 L 398.9 27.4 L 422.1 27.4 L 433.4 56.7 L 444.9 27.4 Z" id="7" vector-effect="non-scaling-stroke"/><path d="M 496.1 76.5 L 503.7 59.3 Q 508.7 62.2 514.9 63.95 Q 521.1 65.7 526.8 65.7 Q 530.607 65.7 532.724 65.127 A 7.164 7.164 0 0 0 533.8 64.75 A 4.719 4.719 0 0 0 534.791 64.16 A 2.756 2.756 0 0 0 535.9 61.9 A 3.019 3.019 0 0 0 534.644 59.429 Q 534.164 59.053 533.5 58.75 A 7.996 7.996 0 0 0 533.15 58.6 Q 531.077 57.771 526.986 56.828 A 128.619 128.619 0 0 0 524.1 56.2 A 142.919 142.919 0 0 1 518.405 54.89 Q 515.705 54.207 513.398 53.488 A 66.672 66.672 0 0 1 510.6 52.55 Q 505.2 50.6 501.2 46.15 Q 497.349 41.867 497.206 34.664 A 28.219 28.219 0 0 1 497.2 34.1 Q 497.2 27.5 500.9 22.1 A 21.748 21.748 0 0 1 506.765 16.373 A 30.266 30.266 0 0 1 511.95 13.6 A 36.874 36.874 0 0 1 519.533 11.375 Q 524.222 10.5 529.8 10.5 Q 537 10.5 543.95 12.05 A 49.465 49.465 0 0 1 551.058 14.179 A 39.084 39.084 0 0 1 556.2 16.6 L 549.1 33.7 Q 539.358 28.782 530.6 28.516 A 32.885 32.885 0 0 0 529.6 28.5 Q 524.234 28.5 522.032 30.03 A 3.325 3.325 0 0 0 520.5 32.9 A 2.834 2.834 0 0 0 521.656 35.199 Q 522.267 35.687 523.2 36.05 Q 525.9 37.1 532.1 38.3 A 123.953 123.953 0 0 1 537.748 39.489 Q 542.162 40.532 545.6 41.75 Q 551.1 43.7 555.15 48.1 Q 558.998 52.281 559.19 59.351 A 27.644 27.644 0 0 1 559.2 60.1 Q 559.2 66.7 555.5 72.05 A 21.95 21.95 0 0 1 549.819 77.628 A 30.84 30.84 0 0 1 544.45 80.55 A 36.433 36.433 0 0 1 536.867 82.811 Q 533.204 83.506 528.998 83.658 A 66.434 66.434 0 0 1 526.6 83.7 Q 517.9 83.7 509.65 81.75 Q 501.4 79.8 496.1 76.5 Z" id="9" vector-effect="non-scaling-stroke"/><path d="M 584.748 81.946 A 38.98 38.98 0 0 0 594.4 83.1 A 42.593 42.593 0 0 0 599.421 82.812 A 34.152 34.152 0 0 0 610.85 79.45 A 32.844 32.844 0 0 0 611.744 78.983 A 27.512 27.512 0 0 0 622.15 69.35 A 25.833 25.833 0 0 0 624.657 64.156 A 28.346 28.346 0 0 0 626.2 54.7 A 32.249 32.249 0 0 0 626.164 53.178 A 26.611 26.611 0 0 0 622.15 40.05 A 26.626 26.626 0 0 0 619.306 36.297 A 28.255 28.255 0 0 0 610.85 30 A 33.222 33.222 0 0 0 603.625 27.416 A 40.352 40.352 0 0 0 594.4 26.4 A 42.774 42.774 0 0 0 589.966 26.625 A 34.626 34.626 0 0 0 578.05 30 A 32.853 32.853 0 0 0 577.6 30.228 A 27.633 27.633 0 0 0 566.7 40.05 Q 562.6 46.5 562.6 54.7 A 32.008 32.008 0 0 0 562.625 55.971 A 26.433 26.433 0 0 0 566.7 69.35 A 27.311 27.311 0 0 0 569.412 72.933 A 28.901 28.901 0 0 0 578.05 79.45 A 32.916 32.916 0 0 0 584.748 81.946 Z M 594.4 65.5 A 8.691 8.691 0 0 0 597.799 64.853 A 8.193 8.193 0 0 0 600.8 62.65 Q 603.3 59.8 603.3 54.7 A 16.725 16.725 0 0 0 603.031 51.601 Q 602.697 49.834 601.95 48.447 A 8.55 8.55 0 0 0 600.8 46.8 A 8.124 8.124 0 0 0 594.882 44.011 A 10.512 10.512 0 0 0 594.4 44 A 8.848 8.848 0 0 0 591.051 44.616 A 8.177 8.177 0 0 0 588 46.8 A 9.175 9.175 0 0 0 586.087 50.299 Q 585.665 51.687 585.546 53.354 A 18.984 18.984 0 0 0 585.5 54.7 Q 585.5 59.8 588 62.65 A 8.061 8.061 0 0 0 593.858 65.486 A 10.286 10.286 0 0 0 594.4 65.5 Z" id="10" vector-effect="non-scaling-stroke"/><path d="M 670.5 27.4 L 693.1 27.4 L 693.1 82.1 L 671.6 82.1 L 671.6 76.9 Q 668.6 80 664.6 81.55 Q 660.6 83.1 656.1 83.1 A 27.614 27.614 0 0 1 648.669 82.151 A 20.616 20.616 0 0 1 639.4 76.75 Q 634.267 71.577 633.316 62.123 A 45.221 45.221 0 0 1 633.1 57.6 L 633.1 27.4 L 655.7 27.4 L 655.7 53.7 A 27.559 27.559 0 0 0 655.827 56.45 Q 656.103 59.189 656.977 60.863 A 6.08 6.08 0 0 0 657.5 61.7 A 5.839 5.839 0 0 0 661.424 63.998 A 8.827 8.827 0 0 0 662.8 64.1 A 6.771 6.771 0 0 0 667.878 61.924 A 8.862 8.862 0 0 0 668.3 61.45 A 8.024 8.024 0 0 0 669.641 59.034 Q 670.445 56.813 670.497 53.548 A 28.607 28.607 0 0 0 670.5 53.1 L 670.5 27.4 Z" id="11" vector-effect="non-scaling-stroke"/><path d="M 725.7 78.4 L 725.7 101.5 L 703.1 101.5 L 703.1 27.4 L 724.6 27.4 L 724.6 31.9 A 15.329 15.329 0 0 1 731.515 27.53 Q 735.023 26.4 739.6 26.4 Q 746.8 26.4 752.85 29.85 A 24.736 24.736 0 0 1 762.112 39.198 A 29.594 29.594 0 0 1 762.45 39.8 Q 766 46.3 766 54.8 Q 766 63.3 762.45 69.75 A 25.583 25.583 0 0 1 756.055 77.473 A 24.463 24.463 0 0 1 752.85 79.65 Q 746.8 83.1 739.6 83.1 A 28.19 28.19 0 0 1 734.211 82.618 Q 731.095 82.011 728.679 80.638 A 14.413 14.413 0 0 1 725.7 78.4 Z M 734.2 65.5 A 8.848 8.848 0 0 0 737.549 64.885 A 8.177 8.177 0 0 0 740.6 62.7 A 9.175 9.175 0 0 0 742.513 59.201 Q 742.935 57.814 743.054 56.147 A 18.984 18.984 0 0 0 743.1 54.8 Q 743.1 49.7 740.6 46.85 A 8.061 8.061 0 0 0 734.742 44.015 A 10.286 10.286 0 0 0 734.2 44 A 8.691 8.691 0 0 0 730.801 44.648 A 8.193 8.193 0 0 0 727.8 46.85 Q 725.3 49.7 725.3 54.8 A 16.725 16.725 0 0 0 725.569 57.9 Q 725.903 59.667 726.65 61.054 A 8.55 8.55 0 0 0 727.8 62.7 A 8.124 8.124 0 0 0 733.718 65.49 A 10.512 10.512 0 0 0 734.2 65.5 Z" id="12" vector-effect="non-scaling-stroke"/></g></svg>